<svg xmlns="http://www.w3.org/2000/svg" xmlns:xlink="http://www.w3.org/1999/xlink" xml:space="preserve" style="shape-rendering:geometricPrecision;text-rendering:geometricPrecision;image-rendering:optimizeQuality;" viewBox="0 0 6.342 6.3411" x="0px" y="0px" fill-rule="evenodd" clip-rule="evenodd"><defs><style type="text/css">
   
    .fil0 {fill:black;fill-rule:nonzero}
   
  </style></defs><g><path class="fil0" d="M2.8922 0.1125l-0.4233 0.4373 -0.5847 -0.1667c-0.2105,-0.0529 -0.4249,0.0708 -0.4844,0.2795l-0.1477 0.5895 -0.5893 0.1476c-0.209,0.0596 -0.3328,0.2737 -0.2798,0.4845l0.1668 0.5846 -0.4372 0.4232c-0.15,0.1552 -0.15,0.4023 -0.0001,0.5576l0.4374 0.423 -0.1668 0.585c-0.0529,0.2105 0.0708,0.4249 0.2795,0.4844l0.5895 0.1476 0.1476 0.5894c0.0596,0.209 0.2737,0.3328 0.4845,0.2798l0.5846 -0.1668 0.4232 0.4372c0.1546,0.1492 0.4034,0.1492 0.558,0l0.4232 -0.4372 0.5846 0.1668c0.2108,0.053 0.4249,-0.0708 0.4845,-0.2798l0.1476 -0.5894 0.5895 -0.1476c0.2087,-0.0595 0.3324,-0.2739 0.2795,-0.4844l-0.1668 -0.585 0.4374 -0.423c0.1499,-0.1553 0.1499,-0.4024 -0.0001,-0.5576l-0.4372 -0.4232 0.1668 -0.5846c0.053,-0.2108 -0.0708,-0.4249 -0.2798,-0.4845l-0.5893 -0.1476 -0.1477 -0.5895c-0.0595,-0.2087 -0.2739,-0.3324 -0.4844,-0.2795l-0.5847 0.1667 -0.4233 -0.4373c-0.1553,-0.1499 -0.4023,-0.1499 -0.5576,0zm0.1772 5.9358l-0.5243 -0.542 -0.7228 0.2066c-0.0785,0.0195 -0.1564,-0.0255 -0.1786,-0.1033l-0.1825 -0.7291 -0.7292 -0.1825c-0.078,-0.0222 -0.1227,-0.1003 -0.1029,-0.1788l0.2062 -0.7221 -0.5419 -0.5249c-0.0531,-0.0567 -0.053,-0.1461 0.0001,-0.2028l0.542 -0.5243 -0.2066 -0.7228c-0.0195,-0.0785 0.0255,-0.1564 0.1033,-0.1786l0.729 -0.1825 0.1826 -0.7292c0.0222,-0.078 0.1003,-0.1227 0.1788,-0.1029l0.7226 0.2063 0.5244 -0.542c0.0566,-0.053 0.1462,-0.053 0.2028,0l0.5244 0.542 0.7226 -0.2063c0.0785,-0.0198 0.1566,0.0249 0.1788,0.1029l0.1826 0.7292 0.729 0.1825c0.0778,0.0222 0.1228,0.1001 0.1033,0.1786l-0.2066 0.7228 0.542 0.5243c0.0531,0.0567 0.0532,0.1461 0.0001,0.2028l-0.5419 0.5249 0.2062 0.7221c0.0198,0.0785 -0.0249,0.1566 -0.1029,0.1788l-0.7292 0.1825 -0.1825 0.7291c-0.0222,0.0778 -0.1001,0.1228 -0.1786,0.1033l-0.7228 -0.2066 -0.5243 0.542c-0.0565,0.053 -0.1467,0.053 -0.2032,0z"></path><path class="fil0" d="M3.4759 2.3198l1.0401 0c0.286,0 0.5792,0.2519 0.5308,0.572l-0.1794 1.1696c-0.0441,0.288 -0.2331,0.5475 -0.5309,0.5475l-1.5619 0c-0.1133,0 -0.2217,-0.0385 -0.311,-0.1065 -0.0156,0.0611 -0.0688,0.1065 -0.1317,0.1065l-0.6147 0c-0.0751,0 -0.1363,-0.0646 -0.1363,-0.1436l0 -1.9342c0,-0.0789 0.0613,-0.1435 0.1363,-0.1435l0.6147 0c0.0738,0 0.1343,0.0625 0.1363,0.1395 0.0609,-0.0921 0.112,-0.1908 0.1488,-0.3066 0.0809,-0.2546 0.0799,-0.5756 0.0425,-0.8417 -0.0077,-0.0538 -0.012,-0.0828 0.0172,-0.1191 0.0308,-0.0382 0.0629,-0.0378 0.1318,-0.0374 0.089,0.0006 0.1786,-0.0001 0.268,-0.0001 0.2197,0 0.3994,0.189 0.3994,0.4201l0 0.6775zm-1.0076 1.9694c0.0724,0.1018 0.1852,0.1621 0.3063,0.1621l1.5619 0c0.2212,0 0.3515,-0.2048 0.3835,-0.4145l0.1795 -1.1696c0.0336,-0.2232 -0.1909,-0.3898 -0.3835,-0.3898l-1.1899 0 0 -0.8351c0,-0.1441 -0.1127,-0.2626 -0.2496,-0.2626 -0.0886,0 -0.1772,0.0001 -0.2657,-0.0005 0.0379,0.2776 0.033,0.6228 -0.0522,0.8911 -0.0655,0.2065 -0.1685,0.361 -0.2903,0.513l0 1.5059zm-0.1498 -1.7441l-0.5879 0 0 1.9062 0.5879 0 0 -1.9062z"></path></g></svg>