<svg xmlns="http://www.w3.org/2000/svg" xmlns:xlink="http://www.w3.org/1999/xlink" version="1.1" x="0px" y="0px" viewBox="0 0 100 100" enable-background="new 0 0 100 100" xml:space="preserve"><g><g><rect x="13.056" y="41.098" fill="none" width="11.096" height="18.91"></rect><rect x="44.452" y="60.761" fill="none" width="11.095" height="18.909"></rect><rect x="75.849" y="20.769" fill="none" width="11.095" height="18.909"></rect><path d="M25.676,38.051h-5.548V6.524C20.128,5.683,19.445,5,18.604,5c-0.842,0-1.524,0.683-1.524,1.524v31.526h-5.547    c-0.842,0-1.524,0.683-1.524,1.524v21.958c0,0.841,0.682,1.524,1.524,1.524h5.547v30.418c0,0.842,0.682,1.525,1.524,1.525    c0.842,0,1.524-0.683,1.524-1.525V63.057h5.548c0.842,0,1.524-0.683,1.524-1.524V39.575C27.2,38.733,26.517,38.051,25.676,38.051z     M24.151,60.008H13.056v-18.91h11.096V60.008z"></path><path d="M57.072,57.714h-5.548V6.524C51.524,5.683,50.842,5,50,5c-0.842,0-1.524,0.683-1.524,1.524v51.189h-5.547    c-0.842,0-1.524,0.682-1.524,1.524v21.958c0,0.841,0.683,1.523,1.524,1.523h5.547v10.756C48.476,94.317,49.158,95,50,95    c0.842,0,1.524-0.683,1.524-1.525V82.719h5.548c0.842,0,1.524-0.682,1.524-1.523V59.237    C58.596,58.395,57.914,57.714,57.072,57.714z M55.548,79.67H44.452V60.761h11.095V79.67z"></path><path d="M88.468,17.721H82.92V6.524C82.92,5.683,82.238,5,81.396,5c-0.842,0-1.524,0.683-1.524,1.524v11.197h-5.547    c-0.842,0-1.524,0.683-1.524,1.524v21.957c0,0.841,0.682,1.524,1.524,1.524h5.547v50.748c0,0.842,0.682,1.525,1.524,1.525    c0.842,0,1.524-0.683,1.524-1.525V42.727h5.548c0.842,0,1.524-0.683,1.524-1.524V19.245C89.992,18.404,89.31,17.721,88.468,17.721    z M86.944,39.679H75.849V20.769h11.095V39.679z"></path></g></g></svg>