<svg xmlns="http://www.w3.org/2000/svg" xmlns:xlink="http://www.w3.org/1999/xlink" version="1.1" x="0px" y="0px" viewBox="0 0 91 91" style="enable-background:new 0 0 91 91;" xml:space="preserve"><g><path d="M26.4,16.7l9.7,9l2.2-2.3l-9.4-8.7c-0.1-0.7,0.2-1.5,1-1.8l4.4-1.8l3.2,6l2.8-1.5l-3.9-7.1l-0.1,0.1l-0.3-0.7   c0.1-1,1-1.8,2-1.8H52c1.1,0,1.9,0.8,2,1.8l-0.2,0.7l-3.8,7l2.8,1.5l3.2-5.9l4.3,1.7c0.7,0.3,1.1,1.1,1,1.8l-9.4,8.7l2.2,2.3l9.7-9   c0.2-0.2,0.3-0.4,0.4-0.6c1-2.4-0.2-5.2-2.6-6.2l-4.2-1.7c0-0.1,0-0.1,0-0.2c0-2.9-2.3-5.2-5.2-5.2H38.1c-2.9,0-5.2,2.3-5.2,5.2   c0,0.1,0,0.1,0,0.2l-4.2,1.7c-2.4,1-3.6,3.8-2.6,6.2C26.1,16.3,26.3,16.5,26.4,16.7z"></path><path d="M28.5,90.1h33.1c0,0,0,0,0,0c0.5,0,10.4-0.1,16.2-6.6c3.3-3.8,4.6-8.8,3.8-15c-2.8-22.1-24.6-39.9-28-41.3   c-2.4-1-14.7-1-17.1,0c-3.4,1.5-25.2,19.2-28,41.3c-0.8,6.2,0.5,11.3,3.8,15C18.2,90,28.1,90,28.5,90.1z M11.6,68.8   C14.3,47.5,36,30.8,37.7,30c0.8-0.3,4.1-0.5,7.3-0.5c3.3,0,6.5,0.2,7.3,0.5c1.7,0.7,23.4,17.5,26.1,38.8c0.7,5.3-0.4,9.5-3.1,12.5   c-4.9,5.5-13.7,5.6-13.8,5.6H28.5h0c-0.1,0-8.9-0.1-13.8-5.6C12,78.3,11,74.1,11.6,68.8z"></path><path d="M43,75.6h0.8v3.1H47v-3.1h0.1c3.7,0,6.6-3,6.6-6.6v-3.4c0-2-1.3-3.8-3.7-5.4l-1-0.4l0,0L47,58.9V47.4h0.1   c1.9,0,3.5,1.6,3.5,3.5v1.6h3.2v-1.6c0-3.7-3-6.6-6.6-6.6H47v-2.9h-3.2v2.9H43c-3.7,0-6.6,3-6.6,6.6v3.4c0,2,1.2,3.8,3.6,5.3   l1.3,0.5l0,0l2.5,1v11.3H43c-1.9,0-3.5-1.6-3.5-3.5v-1.6h-3.2v1.6C36.4,72.6,39.4,75.6,43,75.6z M41.6,56.8c-0.9-0.6-2-1.5-2-2.5   v-3.4c0-1.9,1.6-3.5,3.5-3.5h0.8v10.3l-1.3-0.5l0,0l0,0L41.6,56.8z M47,62.3l1.5,0.6c1.3,0.9,2.1,1.8,2.1,2.6v3.4   c0,1.9-1.6,3.5-3.5,3.5H47V62.3z"></path></g></svg>