<svg xmlns="http://www.w3.org/2000/svg" viewBox="0 0 100 100" x="0px" y="0px"><title>Creator Icon_40</title><path d="M21.35449,55.62012h8.64844a1.25,1.25,0,1,0,0-2.5H22.60449V32.46973h54.791V53.12012H69.99707a1.25,1.25,0,0,0,0,2.5h8.64844a1.24991,1.24991,0,0,0,1.25-1.25V31.21973a1.24991,1.24991,0,0,0-1.25-1.25h-57.291a1.24991,1.24991,0,0,0-1.25,1.25V54.37012A1.24991,1.24991,0,0,0,21.35449,55.62012Z"></path><path d="M34.9082,68.78027a1.24991,1.24991,0,0,0,1.25,1.25H63.8418a1.24991,1.24991,0,0,0,1.25-1.25V42.79492a1.23021,1.23021,0,0,0-.084-.4165h5.53027a1.25,1.25,0,0,0,0-2.5H29.19141a1.25,1.25,0,0,0,0,2.5h5.80078a1.23021,1.23021,0,0,0-.084.4165ZM54.87427,42.37842a1.23352,1.23352,0,0,0-.08618.42725,4.78809,4.78809,0,1,1-9.57617,0,1.23352,1.23352,0,0,0-.08618-.42725Zm-12.07617,0a1.23352,1.23352,0,0,0-.08618.42725,7.28809,7.28809,0,1,0,14.57617,0,1.23352,1.23352,0,0,0-.08618-.42725h5.47388a1.23021,1.23021,0,0,0-.084.4165V67.53027H37.4082V42.79492a1.23021,1.23021,0,0,0-.084-.4165Z"></path><path d="M40.7793,65.57031h4.46a1.25,1.25,0,0,0,0-2.5h-3.21v-3.209a1.25,1.25,0,0,0-2.5,0v4.459A1.24991,1.24991,0,0,0,40.7793,65.57031Z"></path><path d="M55.3418,65.57129l4.459-.001a1.24991,1.24991,0,0,0,1.25-1.25v-4.4585a1.25,1.25,0,0,0-2.5,0v3.209l-3.209.00049a1.25,1.25,0,1,0,0,2.5Z"></path></svg>