<svg xmlns:x="http://ns.adobe.com/Extensibility/1.0/" xmlns:i="http://ns.adobe.com/AdobeIllustrator/10.0/" xmlns:graph="http://ns.adobe.com/Graphs/1.0/" xmlns="http://www.w3.org/2000/svg" xmlns:xlink="http://www.w3.org/1999/xlink" version="1.1" x="0px" y="0px" viewBox="0 0 64 64" enable-background="new 0 0 64 64" xml:space="preserve"><metadata><sfw xmlns="http://ns.adobe.com/SaveForWeb/1.0/"><slices></slices><sliceSourceBounds height="16384" width="16389" x="-8165" y="-8160" bottomLeftOrigin="true"></sliceSourceBounds></sfw></metadata><g><path d="M32,7C18.215,7,7,18.215,7,32s11.215,25,25,25s25-11.215,25-25S45.785,7,32,7z M16.929,49.352   C16.971,49.242,17,49.125,17,49c0-8.271,6.729-15,15-15c8.271,0,15,6.729,15,15c0,0.125,0.029,0.242,0.071,0.353   C43.031,52.865,37.762,55,32,55S20.969,52.865,16.929,49.352z M48.927,47.553c-0.604-7.106-5.591-12.971-12.244-14.882   C39.267,31.087,41,28.246,41,25c0-4.962-4.037-9-9-9c-4.962,0-9,4.038-9,9c0,3.246,1.733,6.087,4.317,7.671   c-6.654,1.911-11.641,7.775-12.244,14.882C11.306,43.455,9,37.992,9,32C9,19.318,19.318,9,32,9c12.683,0,23,10.318,23,23   C55,37.992,52.694,43.455,48.927,47.553z M32,32c-3.86,0-7-3.14-7-7s3.14-7,7-7c3.859,0,7,3.14,7,7S35.859,32,32,32z"></path></g></svg>